<svg id="discount_black_23dp" xmlns="http://www.w3.org/2000/svg" width="23" height="23" viewBox="0 0 23 23">
  <rect id="Rectangle_149106" data-name="Rectangle 149106" width="23" height="23" fill="none"/>
  <g id="Group_13835" data-name="Group 13835" transform="translate(1.002 1.498)">
    <path id="Subtraction_1" data-name="Subtraction 1" d="M7.252,20v0l-1.8-3.037L2,16.18l.323-3.521L0,10l2.325-2.67L2,3.811l3.449-.773L7.252,0,10.5,1.393,13.746,0l1.8,3.049L19,3.83l-.328,3.514L21,10l-2.33,2.656L19,16.176l-3.449.777-1.8,3.039L10.5,18.6,7.252,20Zm.672-8.021a.639.639,0,0,0-.526.279.614.614,0,0,0-.063.576,2.96,2.96,0,0,0,2.249,1.668v.438a.99.99,0,1,0,1.979,0V14.52c1.473-.281,2.315-1.133,2.315-2.34,0-1.846-1.569-2.5-3.105-2.9-1.429-.363-1.985-.762-1.985-1.414,0-.74.7-1.219,1.784-1.219.874,0,1.391.3,1.582.918a.6.6,0,0,0,.572.463h.2a.634.634,0,0,0,.523-.271.608.608,0,0,0,.071-.566,2.619,2.619,0,0,0-1.954-1.67V5.057a.99.99,0,0,0-1.979,0v.436A2.559,2.559,0,0,0,7.27,7.871c0,1.352.986,2.217,3.1,2.725,1.745.418,1.982,1.037,1.982,1.588,0,.57-.471,1.184-1.784,1.184-.976,0-1.62-.328-1.866-.943a.651.651,0,0,0-.595-.441Z" fill="#2a8853"/>
  </g>
</svg>
