<?xml version="1.0" encoding="utf-8"?>
<!-- Generator: Adobe Illustrator 19.0.0, SVG Export Plug-In . SVG Version: 6.00 Build 0)  -->
<svg version="1.1" id="Layer_1" xmlns="http://www.w3.org/2000/svg" xmlns:xlink="http://www.w3.org/1999/xlink" x="0px" y="0px"
	 viewBox="-283 375 44 44" style="enable-background:new -283 375 44 44;" xml:space="preserve">
<style type="text/css">
	.st0{fill:#31A347;}
	.st1{fill:#FFFFFF;}
</style>
<g id="Whatsapp" transform="translate(-1177 -7168)">
	<path id="Surface" class="st0" d="M916,7543L916,7543c12.2,0,22,9.8,22,22l0,0c0,12.2-9.8,22-22,22l0,0c-12.2,0-22-9.8-22-22l0,0
		C894,7552.8,903.8,7543,916,7543z"/>
	<path id="icons8-whatsapp" class="st1" d="M923.1,7557.9c-3.9-3.9-10.2-3.9-14.1,0c-3.2,3.2-3.8,8.1-1.6,12.1l-1.4,5l5.2-1.2
		c1.5,0.8,3.1,1.2,4.8,1.2l0,0c5.5,0,10-4.5,10-10C926,7562.3,924.9,7559.8,923.1,7557.9z M920.9,7568.6c-0.4,0.6-1,1-1.7,1.2
		c-0.5,0-0.9,0.2-3-0.6c-1.7-0.8-3.2-2.1-4.3-3.8c-0.6-0.7-0.9-1.6-1-2.6c0-0.8,0.3-1.5,0.9-2.1c0.2-0.2,0.4-0.3,0.7-0.3
		c0.2,0,0.3,0,0.5,0c0.2,0,0.4,0,0.6,0.4c0.2,0.5,0.7,1.7,0.8,1.9c0.1,0.1,0.1,0.3,0,0.4c-0.1,0.1-0.1,0.3-0.2,0.4
		c-0.1,0.1-0.3,0.3-0.4,0.4c-0.1,0.1-0.3,0.3-0.1,0.5c0.4,0.6,0.8,1.2,1.4,1.7c0.6,0.5,1.3,0.9,2,1.2c0.3,0.1,0.4,0.1,0.5-0.1
		c0.1-0.2,0.6-0.7,0.8-1s0.3-0.2,0.6-0.1s1.5,0.7,1.7,0.8c0.2,0.1,0.4,0.2,0.5,0.3C921.1,7567.8,921.1,7568.2,920.9,7568.6z"/>
</g>
</svg>
