<svg id="love" xmlns="http://www.w3.org/2000/svg" width="40.82" height="35.306" viewBox="0 0 40.82 35.306">
  <path id="Path_4639" data-name="Path 4639" d="M150.285,266.156l-.024-.042a6.8,6.8,0,0,0-9.1-2.553l-5.07,2.633c.021.219.041.46.041.573a5.366,5.366,0,0,1-2.64,4.573,4.609,4.609,0,0,1-2.318.627,5.141,5.141,0,0,1-2.574-.721l-.043-.026-4.354-2.766a1.194,1.194,0,1,1,1.281-2.016l4.332,2.752a2.372,2.372,0,0,0,2.482.082,2.986,2.986,0,0,0,1.354-1.811h0a2.714,2.714,0,0,0-1.422-2.941l-4.929-2.845a2.886,2.886,0,0,0-1.7-.555h-6.57v11.284h.762l9.459,5.472a3.6,3.6,0,0,0,1.8.515,2.937,2.937,0,0,0,1.578-.455l17.465-10.977A.6.6,0,0,0,150.285,266.156Z" transform="translate(-109.545 -243.086)" fill="#fff"/>
  <path id="Path_4640" data-name="Path 4640" d="M5.894,214.948h-4.7A1.194,1.194,0,0,0,0,216.142v16.631a1.194,1.194,0,0,0,1.194,1.194h4.7a1.194,1.194,0,0,0,1.194-1.194V216.142A1.194,1.194,0,0,0,5.894,214.948Z" transform="translate(0 -200.59)" fill="#fff"/>
  <path id="Path_4641" data-name="Path 4641" d="M221.77,51.22c1.587,0,4.035-1.8,5.758-3.583,1.4-1.448,3.746-4.345,3.746-7.466a5.553,5.553,0,0,0-9.5-3.9,5.553,5.553,0,0,0-9.5,3.9c0,2.874,2.34,5.8,3.735,7.285C217.629,49.192,220.117,51.22,221.77,51.22Z" transform="translate(-195.363 -34.623)" fill="#fff"/>
</svg>
