<svg xmlns="http://www.w3.org/2000/svg" width="44" height="44" viewBox="0 0 44 44">
  <g id="Twitter" transform="translate(-1328 -1072)">
    <rect id="Surface" width="44" height="44" rx="22" transform="translate(1328 1072)" fill="#03a9f4"/>
    <g id="Group_11250" data-name="Group 11250" transform="translate(951 513)">
      <rect id="Rectangle_148115" data-name="Rectangle 148115" width="24" height="24" transform="translate(387 569)" fill="none"/>
      <path id="Path_142" data-name="Path 142" d="M15.636,51.609c.011.155.011.31.011.464A10.093,10.093,0,0,1,5.485,62.236,10.094,10.094,0,0,1,0,60.633a7.388,7.388,0,0,0,.863.044A7.153,7.153,0,0,0,5.3,59.151a3.578,3.578,0,0,1-3.34-2.477,4.5,4.5,0,0,0,.675.055,3.778,3.778,0,0,0,.94-.122A3.572,3.572,0,0,1,.708,53.1v-.044a3.6,3.6,0,0,0,1.614.453,3.577,3.577,0,0,1-1.106-4.777,10.153,10.153,0,0,0,7.365,3.738,4.032,4.032,0,0,1-.088-.818,3.575,3.575,0,0,1,6.182-2.444,7.032,7.032,0,0,0,2.267-.863,3.562,3.562,0,0,1-1.57,1.968,7.161,7.161,0,0,0,2.057-.553,7.678,7.678,0,0,1-1.791,1.847Z" transform="translate(390.286 525.918)" fill="#fff"/>
    </g>
  </g>
</svg>
