<svg xmlns="http://www.w3.org/2000/svg" width="44" height="44" viewBox="0 0 44 44">
  <g id="YouTube" transform="translate(-898 -1072)">
    <rect id="Surface" width="44" height="44" rx="22" transform="translate(898 1072)" fill="#f44336"/>
    <g id="email-24px" transform="translate(908 1082)">
      <path id="Path_7365" data-name="Path 7365" d="M0,0H24V24H0Z" fill="rgba(0,0,0,0)"/>
      <path id="icons8-play-button" d="M21.582,6.186a2.506,2.506,0,0,0-1.768-1.768C18.254,4,12,4,12,4s-6.254,0-7.814.418A2.506,2.506,0,0,0,2.418,6.186,35.643,35.643,0,0,0,2,12a35.643,35.643,0,0,0,.418,5.814,2.506,2.506,0,0,0,1.768,1.768C5.746,20,12,20,12,20s6.254,0,7.814-.418a2.5,2.5,0,0,0,1.768-1.768A35.643,35.643,0,0,0,22,12,35.643,35.643,0,0,0,21.582,6.186ZM10,14.6V9.4a.5.5,0,0,1,.75-.433l4.5,2.6a.5.5,0,0,1,0,.866l-4.5,2.6A.5.5,0,0,1,10,14.6Z" fill="#fff"/>
    </g>
  </g>
</svg>
