<svg id="directions-24px_1_" data-name="directions-24px (1)" xmlns="http://www.w3.org/2000/svg" width="20" height="20" viewBox="0 0 20 20">
  <path id="Path_7681" data-name="Path 7681" d="M0,0H20V20H0Z" fill="none"/>
  <path id="Path_7682" data-name="Path 7682" d="M18.534,8.846,11.162,1.477a1.678,1.678,0,0,0-2.315,0L1.484,8.838a1.629,1.629,0,0,0,0,2.306l7.363,7.361a1.64,1.64,0,0,0,2.307,0l7.355-7.353A1.629,1.629,0,0,0,18.534,8.846Zm-8.525,8.506L2.645,9.991,10.009,2.63l7.363,7.361ZM6.728,9.182v3.272H8.364V10h3.273v2.045L14.5,9.182,11.637,6.319V8.364H7.546A.82.82,0,0,0,6.728,9.182Z" transform="translate(0 0)" fill="#fff"/>
</svg>
