<svg xmlns="http://www.w3.org/2000/svg" width="76" height="76" viewBox="0 0 76 76">
  <g id="Location_Icon" data-name="Location Icon" transform="translate(11704 5677)">
    <circle id="Ellipse_326" data-name="Ellipse 326" cx="38" cy="38" r="38" transform="translate(-11704 -5677)" fill="#fff" opacity="0.2"/>
    <circle id="Ellipse_327" data-name="Ellipse 327" cx="30" cy="30" r="30" transform="translate(-11696 -5669)" fill="#fff" opacity="0.3"/>
    <circle id="Ellipse_328" data-name="Ellipse 328" cx="22" cy="22" r="22" transform="translate(-11688 -5661)" fill="#fff"/>
    <g id="location_on-24px_2_" data-name="location_on-24px (2)" transform="translate(-11678 -5651)">
      <path id="Path_21441" data-name="Path 21441" d="M0,0H24V24H0Z" fill="none"/>
      <path id="Path_21442" data-name="Path 21442" d="M12,2A7,7,0,0,0,5,9c0,5.25,7,13,7,13s7-7.75,7-13A7,7,0,0,0,12,2Zm0,9.5A2.5,2.5,0,1,1,14.5,9,2.5,2.5,0,0,1,12,11.5Z" fill="#0053a5"/>
    </g>
  </g>
</svg>
